<svg xmlns="http://www.w3.org/2000/svg" width="88" height="20" viewBox="0 0 88 20" fill="none">
  <path d="M70.1008 0.0663357C68.5523 0.396912 67.3509 1.56698 66.9692 3.11111C66.8911 3.42864 66.8738 3.62438 66.8738 4.19419C66.8738 4.96843 66.9302 5.30336 67.1557 5.86447C67.5547 6.86924 68.4396 7.75223 69.4285 8.135C70.1832 8.43078 69.6974 8.41338 77.3008 8.41338H84.1756L84.566 8.31334C86.1057 7.92187 87.2812 6.70396 87.5978 5.16417C87.6889 4.71615 87.6889 3.67657 87.5978 3.22421C87.2855 1.68442 86.006 0.392562 84.4792 0.0793848C84.1062 0.00109005 83.7505 -0.00325966 77.2358 0.00109005C71.5495 0.00109005 70.335 0.0141392 70.1008 0.0663357ZM84.1062 0.958021C84.7915 1.06676 85.351 1.35819 85.8455 1.86276C86.2272 2.25423 86.4137 2.55436 86.6002 3.07197C86.7303 3.44169 86.7347 3.48084 86.7347 4.17244C86.7347 4.80314 86.7216 4.92928 86.6349 5.21636C86.4571 5.77747 86.2532 6.1124 85.8238 6.54737C85.364 7.00843 84.9433 7.25202 84.3578 7.39121C83.9934 7.4782 83.885 7.4782 77.1404 7.4695L70.296 7.45645L69.949 7.33466C68.9774 6.99103 68.2531 6.26464 67.9408 5.31641C67.8497 5.03368 67.828 4.87274 67.8107 4.33773C67.789 3.55043 67.854 3.21116 68.136 2.637C68.3008 2.30207 68.4005 2.17158 68.7302 1.84536C69.2507 1.32774 69.6714 1.10156 70.3393 0.97542C70.7297 0.901475 83.6595 0.884076 84.1062 0.958021Z" fill="white"/>
  <path d="M70.5347 2.18865C70.1877 2.2626 69.9101 2.41049 69.6282 2.67147C69.3549 2.9281 69.1901 3.19778 69.0817 3.58055C68.9776 3.93722 69.0079 4.70712 69.1381 5.04204C69.3246 5.52051 69.7496 5.94243 70.2311 6.14251C70.4653 6.23821 70.5 6.23821 72.7684 6.25126C74.3776 6.25996 75.1453 6.25126 75.3275 6.21646C76.0388 6.07727 76.6157 5.52921 76.8065 4.80281C76.8846 4.51138 76.8803 3.90243 76.8022 3.5849C76.62 2.8759 76.0085 2.30609 75.2885 2.1756C74.9198 2.10601 70.8557 2.11906 70.5347 2.18865ZM75.1367 3.04119C75.4316 3.09774 75.6788 3.26737 75.8436 3.5327C75.9521 3.71104 75.9738 3.79803 75.9911 4.11121C76.0215 4.67667 75.835 5.04639 75.4186 5.27258C75.2451 5.36827 75.2104 5.36827 73.033 5.38132C70.5564 5.39437 70.5087 5.39002 70.2181 5.10729C69.9448 4.84196 69.9058 4.72887 69.9058 4.21125C69.9058 3.77629 69.9144 3.74149 70.0359 3.5414C70.1964 3.28042 70.4479 3.09774 70.7082 3.04554C70.9858 2.98899 74.8504 2.98899 75.1367 3.04119Z" fill="white"/>
  <path d="M78.1466 2.25395C77.5437 2.52798 77.3268 3.5284 77.7432 4.11126C77.8169 4.21565 77.9557 4.35484 78.0555 4.42009L78.2333 4.54188L81.3475 4.56363L84.4661 4.58538L84.5485 4.68977C84.6656 4.83331 84.6613 5.18563 84.5442 5.30308C84.4574 5.39007 84.4011 5.39007 81.1827 5.39007H77.908V5.80329V6.21651H81.3172C85.1254 6.21651 84.8738 6.23826 85.1775 5.90333C85.3813 5.67715 85.455 5.49011 85.4854 5.12474C85.5288 4.58973 85.3293 4.15041 84.9346 3.91988L84.7394 3.80243L81.6251 3.78069L78.5066 3.75894L78.4241 3.65455C78.3114 3.51536 78.3114 3.21958 78.4285 3.09344L78.5196 2.99774H81.79H85.0647V2.58452V2.1713H81.6945C78.5152 2.1713 78.3114 2.17565 78.1466 2.25395Z" fill="white"/>
  <path d="M0.108435 0.266474C0.169158 0.370867 2.40725 4.28123 5.08341 8.95715C7.75958 13.6331 10.0714 17.6478 10.2232 17.874C10.9519 18.9745 11.6632 19.566 12.6088 19.8618C12.9861 19.9749 13.0338 19.9792 13.9317 19.9792C14.8208 19.9792 14.8816 19.9749 15.2459 19.8618C15.9529 19.6443 16.391 19.3703 16.9115 18.8135C17.1066 18.6091 17.3712 18.2785 17.5013 18.0828C17.7139 17.7609 27.8113 0.144684 27.8113 0.0968361C27.8113 0.0881367 27.0262 0.0837879 26.0677 0.0968361C24.6147 0.109886 24.2807 0.122934 24.0812 0.18383C23.4999 0.357819 22.9317 0.749289 22.6238 1.19731C22.524 1.3365 20.6546 4.58571 18.4642 8.41343C16.2782 12.2412 14.4348 15.4251 14.3741 15.4947C14.1442 15.7383 13.7365 15.7557 13.4979 15.5339C13.4242 15.4686 11.5938 12.3108 9.3514 8.39169C7.14367 4.52917 5.26558 1.27125 5.17884 1.15816C4.9663 0.862381 4.57594 0.549204 4.19859 0.366518C3.66509 0.109886 3.41786 0.0837879 1.60483 0.0837879H0L0.108435 0.266474Z" fill="white"/>
  <path d="M33.3067 0.135798C32.873 0.183643 32.244 0.388079 31.9101 0.583815C31.3332 0.927439 30.8387 1.432 30.3009 2.23669C30.1274 2.49767 27.7592 6.59943 25.0396 11.3493L20.0994 19.9834L21.7953 19.9965C23.6864 20.0095 23.7558 20.0008 24.3413 19.7137C24.5929 19.5919 24.7447 19.4745 25.0093 19.2048C25.3476 18.8568 25.3866 18.7872 29.4161 11.7451C32.166 6.93435 33.5149 4.61162 33.5973 4.55073C33.8489 4.36804 34.2522 4.41154 34.4604 4.64207C34.5038 4.68992 36.3515 7.89563 38.5679 11.7712C40.9752 15.9817 42.6798 18.9134 42.8099 19.0743C43.0571 19.3788 43.4995 19.692 43.9289 19.866L44.2282 19.9834L46.0412 19.9965C47.0345 20.0052 47.8499 19.9965 47.8499 19.9834C47.8499 19.9225 37.8436 2.46723 37.579 2.06706C36.5597 0.518568 35.2238 -0.0860367 33.3067 0.135798Z" fill="white"/>
  <path d="M62.3675 0.148844C61.7646 0.270636 61.1096 0.683855 60.7583 1.16232C60.6759 1.27976 58.2036 5.55985 55.2715 10.6794L49.9365 19.9834L51.6324 19.9965C53.5279 20.0095 53.6016 20.0008 54.1828 19.7137C54.4214 19.5963 54.5949 19.4701 54.8334 19.2266C55.1544 18.9003 55.2325 18.7698 60.472 9.63116C63.3911 4.53333 65.82 0.301083 65.8634 0.222788L65.9458 0.0835991L64.3019 0.0879478C63.1092 0.0922985 62.58 0.109695 62.3675 0.148844Z" fill="white"/>
  <path d="M70.7209 10.7664C70.504 10.8751 70.3999 11.0796 70.3739 11.458L70.3479 11.7842H70.1831C70.0139 11.7842 70.0139 11.7842 70.0139 11.9582V12.1322H70.1874H70.3609V12.8716V13.6111H70.5995H70.838V12.8716V12.1322H71.0332H71.2284V11.9582V11.7842H71.0332H70.838V11.5319C70.838 11.2014 70.9161 11.0883 71.146 11.0883H71.3151V10.8925V10.6968H71.0896C70.9638 10.6968 70.7946 10.7316 70.7209 10.7664Z" fill="white"/>
  <path d="M83.1995 12.1757V13.6111H83.4163H83.6332V12.1757V10.7403H83.4163H83.1995V12.1757Z" fill="white"/>
  <path d="M75.7092 10.8708C75.3058 10.9578 74.9588 11.2144 74.7636 11.5711C74.5207 12.0234 74.5728 12.7324 74.8851 13.1413C75.3492 13.7503 76.3858 13.8633 76.9236 13.3588C76.9887 13.2979 77.0407 13.2326 77.0407 13.2109C77.0407 13.1935 76.9627 13.1239 76.8673 13.063L76.6894 12.9456L76.594 13.0326C76.26 13.337 75.7482 13.3153 75.4142 12.9847C74.8634 12.4279 75.1713 11.3797 75.913 11.2796C76.1472 11.2492 76.4248 11.3144 76.555 11.4362C76.6721 11.5493 76.6851 11.545 76.8846 11.3753L77.0494 11.2318L76.902 11.1187C76.6113 10.8969 76.0952 10.7881 75.7092 10.8708Z" fill="white"/>
  <path d="M69.2984 10.9796C69.2377 11.0361 69.1899 11.1101 69.1899 11.1449C69.1899 11.2579 69.3678 11.4363 69.4762 11.4363C69.5977 11.4363 69.7972 11.2579 69.7972 11.1535C69.7972 11.0535 69.602 10.8708 69.4936 10.8708C69.4458 10.8708 69.3548 10.9187 69.2984 10.9796Z" fill="white"/>
  <path d="M82.1413 10.962C81.8507 11.1926 82.1891 11.584 82.497 11.3666C82.6922 11.2274 82.5751 10.8707 82.3278 10.8707C82.2888 10.8707 82.2064 10.9098 82.1413 10.962Z" fill="white"/>
  <path d="M67.325 12.2627V13.6111H68.1274H68.9298V13.3936V13.1761H68.3659H67.8021V12.0452V10.9143H67.5635H67.325V12.2627Z" fill="white"/>
  <path d="M79.8164 12.2583V13.6111H80.055H80.2935V13.0456V12.4802H80.6362C81.3345 12.4802 81.6815 12.2105 81.6815 11.6755C81.6815 11.3971 81.5557 11.1753 81.3302 11.0448C81.1523 10.9447 81.0873 10.936 80.48 10.923L79.8164 10.9056V12.2583ZM81.0482 11.4101C81.1089 11.4493 81.174 11.5319 81.187 11.5972C81.2651 11.8973 81.0179 12.0887 80.5668 12.0887H80.2935V11.6929V11.2927L80.6145 11.3145C80.814 11.3275 80.9832 11.3623 81.0482 11.4101Z" fill="white"/>
  <path d="M86.7562 11.5232V11.7842H86.5827C86.4092 11.7842 86.4092 11.7842 86.4092 11.9538C86.4092 12.1235 86.4135 12.1278 86.574 12.1409L86.7345 12.1539L86.7562 12.7411C86.7692 13.1108 86.7995 13.3675 86.8342 13.4284C86.9036 13.5545 87.1335 13.6545 87.3374 13.6545C87.5803 13.6545 87.6236 13.6197 87.6236 13.4327C87.6236 13.2631 87.6236 13.2631 87.4502 13.2631C87.2159 13.2631 87.1899 13.1935 87.1899 12.615V12.1322H87.4285H87.667V11.9582V11.7842H87.4285H87.1899V11.5232V11.2622H86.973H86.7562V11.5232Z" fill="white"/>
  <path d="M71.9878 11.8147C71.6148 12.0104 71.4239 12.354 71.4543 12.7759C71.4803 13.1196 71.6018 13.3414 71.8533 13.5023C72.235 13.7372 72.8336 13.6937 73.0982 13.411L73.2023 13.2979L73.0505 13.1761C72.8987 13.05 72.8987 13.05 72.8076 13.137C72.569 13.3631 72.157 13.3197 71.9791 13.05C71.9271 12.9717 71.8924 12.889 71.9054 12.8673C71.9184 12.8455 72.2307 12.8281 72.5994 12.8281H73.2673V12.615C73.2673 12.3018 73.0852 11.9712 72.8379 11.8408C72.6081 11.719 72.1917 11.7059 71.9878 11.8147ZM72.6775 12.1844C72.7382 12.2409 72.7946 12.3323 72.7989 12.3932L72.8119 12.5019L72.3695 12.515C71.9401 12.528 71.9227 12.5237 71.9227 12.4367C71.9227 12.3845 71.9791 12.2844 72.0485 12.2148C72.2134 12.0495 72.5083 12.0365 72.6775 12.1844Z" fill="white"/>
  <path d="M77.791 11.8452C77.2141 12.1149 77.1057 12.9413 77.5915 13.4024C77.9602 13.7547 78.6064 13.7417 78.9708 13.372C79.4522 12.8935 79.2961 12.0671 78.6802 11.8104C78.4329 11.706 78.0599 11.7234 77.791 11.8452ZM78.6151 12.2584C78.7149 12.3541 78.7496 12.4368 78.7669 12.6064C78.8016 12.9979 78.6108 13.2632 78.2941 13.2632C78.0469 13.2632 77.9211 13.1849 77.817 12.9718C77.6045 12.5325 77.8994 12.0497 78.3418 12.1106C78.4286 12.1193 78.5414 12.1845 78.6151 12.2584Z" fill="white"/>
  <path d="M84.7611 11.8103C84.4098 11.9625 84.1973 12.2931 84.1973 12.6846C84.2016 13.2631 84.592 13.6545 85.1732 13.6545C85.7457 13.6545 86.1491 13.2587 86.1491 12.6976C86.1491 12.2931 85.9322 11.9582 85.5766 11.8103C85.3727 11.7233 84.9606 11.7233 84.7611 11.8103ZM85.3857 12.1539C85.7197 12.3148 85.7978 12.8411 85.5245 13.1152C85.3293 13.3109 85.0561 13.324 84.8522 13.15C84.4618 12.8238 84.6787 12.1017 85.1645 12.0887C85.2122 12.0887 85.3076 12.1191 85.3857 12.1539Z" fill="white"/>
  <path d="M69.2769 12.6977V13.6111H69.4937H69.7106V12.6977V11.7842H69.4937H69.2769V12.6977Z" fill="white"/>
  <path d="M82.0718 12.6977V13.6111H82.3103H82.5489V12.6977V11.7842H82.3103H82.0718V12.6977Z" fill="white"/>
</svg>