<svg width="48" height="49" viewBox="0 0 48 49" fill="none" xmlns="http://www.w3.org/2000/svg">
<g filter="url(#filter0_iii_1796_2804)">
<rect y="0.5" width="48" height="48" rx="24" fill="#A170FF" fill-opacity="0.16"/>
<path d="M14 26.5C14 22.9934 14 21.24 14.908 20.0599C15.0742 19.8439 15.2599 19.6458 15.4624 19.4685C16.5688 18.5 18.2125 18.5 21.5 18.5H26.5C29.7875 18.5 31.4312 18.5 32.5376 19.4685C32.7401 19.6458 32.9258 19.8439 33.092 20.0599C34 21.24 34 22.9934 34 26.5C34 30.0066 34 31.76 33.092 32.9401C32.9258 33.1561 32.7401 33.3542 32.5376 33.5315C31.4312 34.5 29.7875 34.5 26.5 34.5H21.5C18.2125 34.5 16.5688 34.5 15.4624 33.5315C15.2599 33.3542 15.0742 33.1561 14.908 32.9401C14 31.76 14 30.0066 14 26.5Z" fill="#A174FF" fill-opacity="0.2"/>
<path d="M26.5021 18.5H21.4979C18.2075 18.5 16.5624 18.5 15.4551 19.4685C15.2524 19.6458 15.0665 19.8439 14.9002 20.0599C14.1835 20.9906 14.032 22.2777 14 24.5H34C33.968 22.2777 33.8165 20.9906 33.0998 20.0599C32.9335 19.8439 32.7476 19.6458 32.5449 19.4685C31.4376 18.5 29.7924 18.5 26.5021 18.5Z" fill="#A174FF" fill-opacity="0.2"/>
<path d="M27.4142 15.0858C26.8284 14.5 25.8856 14.5 24 14.5C22.1144 14.5 21.1716 14.5 20.5858 15.0858C20 15.6716 20 16.6144 20 18.5H28C28 16.6144 28 15.6716 27.4142 15.0858Z" fill="#A174FF" fill-opacity="0.2"/>
<path d="M14 26.5C14 22.9934 14 21.24 14.908 20.0599C15.0742 19.8439 15.2599 19.6458 15.4624 19.4685C16.5688 18.5 18.2125 18.5 21.5 18.5H26.5C29.7875 18.5 31.4312 18.5 32.5376 19.4685C32.7401 19.6458 32.9258 19.8439 33.092 20.0599C34 21.24 34 22.9934 34 26.5C34 30.0066 34 31.76 33.092 32.9401C32.9258 33.1561 32.7401 33.3542 32.5376 33.5315C31.4312 34.5 29.7875 34.5 26.5 34.5H21.5C18.2125 34.5 16.5688 34.5 15.4624 33.5315C15.2599 33.3542 15.0742 33.1561 14.908 32.9401C14 31.76 14 30.0066 14 26.5Z" stroke="#A174FF" stroke-width="1.5"/>
<path d="M28 18.5C28 16.6144 28 15.6716 27.4142 15.0858C26.8284 14.5 25.8856 14.5 24 14.5C22.1144 14.5 21.1716 14.5 20.5858 15.0858C20 15.6716 20 16.6144 20 18.5" stroke="#A174FF" stroke-width="1.5" stroke-linecap="round" stroke-linejoin="round"/>
<path d="M24 23.5C22.8954 23.5 22 24.1716 22 25C22 25.8284 22.8954 26.5 24 26.5C25.1046 26.5 26 27.1716 26 28C26 28.8284 25.1046 29.5 24 29.5M24 23.5C24.8708 23.5 25.6116 23.9174 25.8862 24.5M24 23.5V22.5M24 29.5C23.1292 29.5 22.3884 29.0826 22.1138 28.5M24 29.5V30.5" stroke="#A174FF" stroke-width="1.5" stroke-linecap="round"/>
<path d="M18 24.5H14" stroke="#A174FF" stroke-width="1.5" stroke-linecap="round"/>
<path d="M34 24.5L30 24.5" stroke="#A174FF" stroke-width="1.5" stroke-linecap="round"/>
</g>
<defs>
<filter id="filter0_iii_1796_2804" x="-20" y="-19.5" width="88" height="148" filterUnits="userSpaceOnUse" color-interpolation-filters="sRGB">
<feFlood flood-opacity="0" result="BackgroundImageFix"/>
<feBlend mode="normal" in="SourceGraphic" in2="BackgroundImageFix" result="shape"/>
<feColorMatrix in="SourceAlpha" type="matrix" values="0 0 0 0 0 0 0 0 0 0 0 0 0 0 0 0 0 0 127 0" result="hardAlpha"/>
<feOffset dy="1"/>
<feGaussianBlur stdDeviation="0.5"/>
<feComposite in2="hardAlpha" operator="arithmetic" k2="-1" k3="1"/>
<feColorMatrix type="matrix" values="0 0 0 0 0.631373 0 0 0 0 0.439216 0 0 0 0 1 0 0 0 0.2 0"/>
<feBlend mode="normal" in2="shape" result="effect1_innerShadow_1796_2804"/>
<feColorMatrix in="SourceAlpha" type="matrix" values="0 0 0 0 0 0 0 0 0 0 0 0 0 0 0 0 0 0 127 0" result="hardAlpha"/>
<feOffset dy="-1"/>
<feGaussianBlur stdDeviation="0.5"/>
<feComposite in2="hardAlpha" operator="arithmetic" k2="-1" k3="1"/>
<feColorMatrix type="matrix" values="0 0 0 0 0.631373 0 0 0 0 0.439216 0 0 0 0 1 0 0 0 0.2 0"/>
<feBlend mode="normal" in2="effect1_innerShadow_1796_2804" result="effect2_innerShadow_1796_2804"/>
<feColorMatrix in="SourceAlpha" type="matrix" values="0 0 0 0 0 0 0 0 0 0 0 0 0 0 0 0 0 0 127 0" result="hardAlpha"/>
<feOffset dx="6" dy="80"/>
<feGaussianBlur stdDeviation="40"/>
<feComposite in2="hardAlpha" operator="arithmetic" k2="-1" k3="1"/>
<feColorMatrix type="matrix" values="0 0 0 0 0.631373 0 0 0 0 0.439216 0 0 0 0 1 0 0 0 0.02 0"/>
<feBlend mode="normal" in2="effect2_innerShadow_1796_2804" result="effect3_innerShadow_1796_2804"/>
</filter>
</defs>
</svg>
