<svg width="48" height="49" viewBox="0 0 48 49" fill="none" xmlns="http://www.w3.org/2000/svg">
<g filter="url(#filter0_iii_1796_2796)">
<rect y="0.5" width="48" height="48" rx="24" fill="#A170FF" fill-opacity="0.16"/>
<path d="M32.5 21C32.5 22.3807 31.3807 23.5 30 23.5C28.6193 23.5 27.5 22.3807 27.5 21C27.5 19.6193 28.6193 18.5 30 18.5C31.3807 18.5 32.5 19.6193 32.5 21Z" fill="#A173FF" fill-opacity="0.2"/>
<path d="M20.5 21C20.5 22.3807 19.3807 23.5 18 23.5C16.6193 23.5 15.5 22.3807 15.5 21C15.5 19.6193 16.6193 18.5 18 18.5C19.3807 18.5 20.5 19.6193 20.5 21Z" fill="#A173FF" fill-opacity="0.2"/>
<path d="M15.5838 26.426C14.562 26.9525 11.883 28.0276 13.5147 29.3729C14.3118 30.03 15.1995 30.5 16.3156 30.5H22.6844C23.8005 30.5 24.6882 30.03 25.4853 29.3729C27.117 28.0276 24.438 26.9525 23.4162 26.426C21.0201 25.1913 17.9799 25.1913 15.5838 26.426Z" fill="#A173FF" fill-opacity="0.2"/>
<path d="M24.5838 26.426C23.562 26.9525 20.883 28.0276 22.5147 29.3729C23.3118 30.03 24.1995 30.5 25.3156 30.5H31.6844C32.8005 30.5 33.6882 30.03 34.4853 29.3729C36.117 28.0276 33.438 26.9525 32.4162 26.426C30.0201 25.1913 26.9799 25.1913 24.5838 26.426Z" fill="#A173FF" fill-opacity="0.2"/>
<path d="M32.774 30.5C33.5233 30.5 34.1193 30.0285 34.6545 29.3691C35.7499 28.0194 33.9513 26.9408 33.2654 26.4126C32.568 25.8756 31.7894 25.5714 31 25.5M30 23.5C31.3807 23.5 32.5 22.3807 32.5 21C32.5 19.6193 31.3807 18.5 30 18.5" stroke="#A173FF" stroke-width="1.5" stroke-linecap="round"/>
<path d="M15.226 30.5C14.4767 30.5 13.8807 30.0285 13.3455 29.3691C12.2501 28.0194 14.0487 26.9408 14.7346 26.4126C15.432 25.8756 16.2106 25.5714 17 25.5M17.5 23.5C16.1193 23.5 15 22.3807 15 21C15 19.6193 16.1193 18.5 17.5 18.5" stroke="#A173FF" stroke-width="1.5" stroke-linecap="round"/>
<path d="M20.0838 27.6112C19.062 28.243 16.383 29.5331 18.0147 31.1474C18.8118 31.936 19.6995 32.5 20.8156 32.5H27.1844C28.3005 32.5 29.1882 31.936 29.9853 31.1474C31.617 29.5331 28.938 28.243 27.9162 27.6112C25.5201 26.1296 22.4799 26.1296 20.0838 27.6112Z" fill="#A173FF" fill-opacity="0.2"/>
<path d="M20.0838 27.6112C19.062 28.243 16.383 29.5331 18.0147 31.1474C18.8118 31.936 19.6995 32.5 20.8156 32.5H27.1844C28.3005 32.5 29.1882 31.936 29.9853 31.1474C31.617 29.5331 28.938 28.243 27.9162 27.6112C25.5201 26.1296 22.4799 26.1296 20.0838 27.6112Z" stroke="#A173FF" stroke-width="1.5" stroke-linecap="round" stroke-linejoin="round"/>
<path d="M27.5 20C27.5 21.933 25.933 23.5 24 23.5C22.067 23.5 20.5 21.933 20.5 20C20.5 18.067 22.067 16.5 24 16.5C25.933 16.5 27.5 18.067 27.5 20Z" fill="#A173FF" fill-opacity="0.2"/>
<path d="M27.5 20C27.5 21.933 25.933 23.5 24 23.5C22.067 23.5 20.5 21.933 20.5 20C20.5 18.067 22.067 16.5 24 16.5C25.933 16.5 27.5 18.067 27.5 20Z" stroke="#A173FF" stroke-width="1.5"/>
</g>
<defs>
<filter id="filter0_iii_1796_2796" x="-20" y="-19.5" width="88" height="148" filterUnits="userSpaceOnUse" color-interpolation-filters="sRGB">
<feFlood flood-opacity="0" result="BackgroundImageFix"/>
<feBlend mode="normal" in="SourceGraphic" in2="BackgroundImageFix" result="shape"/>
<feColorMatrix in="SourceAlpha" type="matrix" values="0 0 0 0 0 0 0 0 0 0 0 0 0 0 0 0 0 0 127 0" result="hardAlpha"/>
<feOffset dy="1"/>
<feGaussianBlur stdDeviation="0.5"/>
<feComposite in2="hardAlpha" operator="arithmetic" k2="-1" k3="1"/>
<feColorMatrix type="matrix" values="0 0 0 0 0.631373 0 0 0 0 0.439216 0 0 0 0 1 0 0 0 0.2 0"/>
<feBlend mode="normal" in2="shape" result="effect1_innerShadow_1796_2796"/>
<feColorMatrix in="SourceAlpha" type="matrix" values="0 0 0 0 0 0 0 0 0 0 0 0 0 0 0 0 0 0 127 0" result="hardAlpha"/>
<feOffset dy="-1"/>
<feGaussianBlur stdDeviation="0.5"/>
<feComposite in2="hardAlpha" operator="arithmetic" k2="-1" k3="1"/>
<feColorMatrix type="matrix" values="0 0 0 0 0.631373 0 0 0 0 0.439216 0 0 0 0 1 0 0 0 0.2 0"/>
<feBlend mode="normal" in2="effect1_innerShadow_1796_2796" result="effect2_innerShadow_1796_2796"/>
<feColorMatrix in="SourceAlpha" type="matrix" values="0 0 0 0 0 0 0 0 0 0 0 0 0 0 0 0 0 0 127 0" result="hardAlpha"/>
<feOffset dx="6" dy="80"/>
<feGaussianBlur stdDeviation="40"/>
<feComposite in2="hardAlpha" operator="arithmetic" k2="-1" k3="1"/>
<feColorMatrix type="matrix" values="0 0 0 0 0.631373 0 0 0 0 0.439216 0 0 0 0 1 0 0 0 0.02 0"/>
<feBlend mode="normal" in2="effect2_innerShadow_1796_2796" result="effect3_innerShadow_1796_2796"/>
</filter>
</defs>
</svg>
